# Blender v2.92.0 OBJ File: '01.blend'
# www.blender.org
mtllib Mural_2Env.mtl
o Mural_02_Env_Mesh.032
v 0.037749 2.301056 -247.113007
v 28.186390 2.301056 -247.113007
v 28.186390 6.750963 -247.112991
v 0.037749 6.750963 -247.112991
v 28.186390 2.301057 -254.555359
v 28.186390 6.750965 -254.555359
v 28.186390 2.301062 -282.226501
v 0.037749 2.301062 -282.226501
v 0.037749 6.750969 -282.226501
v 28.186390 6.750969 -282.226501
v 28.186390 9.591219 -247.112991
v 0.037749 9.591219 -247.112991
v 28.186390 9.591225 -282.226501
v 28.186390 9.591224 -274.854462
v 28.186390 6.750968 -274.854462
v 0.037749 9.591225 -282.226501
v 27.254202 2.301057 -254.555359
v 27.254202 2.301058 -257.561462
v 27.254202 6.750965 -257.561462
v 27.254202 6.750965 -254.555359
v 28.186390 9.591221 -254.555359
v 28.186390 9.591221 -257.561462
v 28.186390 6.750965 -257.561462
v 28.186390 2.301058 -257.561462
v 28.186390 2.301058 -260.069794
v 28.186390 6.750966 -260.069794
v 28.186390 9.591221 -260.069794
v 27.254202 2.301058 -260.069794
v 27.254202 2.301059 -263.114227
v 27.254202 6.750966 -263.114227
v 27.254202 6.750966 -260.069794
v 28.186390 9.591222 -263.114227
v 28.186390 6.750966 -263.114227
v 28.186390 2.301059 -263.114227
v 28.186390 2.301059 -265.958771
v 28.186390 6.750967 -265.958771
v 28.186390 9.591223 -265.958771
v 27.254202 2.301059 -265.958771
v 27.254202 2.301060 -268.986786
v 27.254202 6.750967 -268.986786
v 27.254202 6.750967 -265.958771
v 28.186390 9.591223 -268.986786
v 28.186390 6.750967 -268.986786
v 28.186390 2.301060 -268.986786
v 28.186390 2.301060 -271.839905
v 28.186390 6.750968 -271.839905
v 28.186390 9.591223 -271.839905
v 27.254202 2.301060 -271.839905
v 27.254202 2.301061 -274.854462
v 27.254202 6.750968 -274.854462
v 27.254202 6.750968 -271.839905
v 28.186390 2.301061 -274.854462
v 28.189545 2.260619 -254.073746
v 28.189545 7.346279 -254.073746
v 36.077839 7.346279 -254.073746
v 36.077839 2.260619 -254.073746
v 28.189545 2.260619 -253.818405
v 36.077839 2.260619 -253.818405
v 36.077839 7.346279 -253.818405
v 28.189545 7.346279 -253.818405
v 28.189545 2.260623 -275.966156
v 28.189545 7.346282 -275.966156
v 36.077839 7.346282 -275.966156
v 36.077839 2.260623 -275.966156
v 28.189545 2.260623 -275.710785
v 36.077839 2.260623 -275.710785
v 36.077839 7.346282 -275.710785
v 28.189545 7.346282 -275.710785
v -7.866324 2.260623 -281.030426
v -7.866324 7.346283 -281.030426
v 0.010985 7.346283 -281.030426
v 0.010985 2.260623 -281.030426
v -7.866324 2.260623 -280.775177
v 0.010985 2.260623 -280.775177
v 0.010985 7.346283 -280.775177
v -7.866324 7.346283 -280.775177
v -10.873025 2.352490 -301.777191
v -10.873025 2.352477 -224.290192
v 39.310577 2.352477 -224.290192
v 39.310577 2.352490 -301.515411
v -10.873025 9.557510 -301.777191
v 39.310577 9.557510 -301.515411
v 39.310577 9.557497 -224.290192
v -10.873025 9.557497 -224.290192
vt 0.341900 0.827300
vt 0.988600 0.827300
vt 0.988600 0.929600
vt 0.341900 0.929600
vt 0.345000 0.495800
vt 0.481100 0.495800
vt 0.481100 0.577400
vt 0.345000 0.577400
vt 0.990600 0.806700
vt 0.343900 0.806700
vt 0.343900 0.704400
vt 0.990600 0.704400
vt 0.988600 0.490600
vt 0.345000 0.490600
vt 0.345000 0.409000
vt 0.988600 0.409000
vt 0.988600 0.994900
vt 0.341900 0.994900
vt 0.988600 0.577400
vt 0.988600 0.629400
vt 0.853300 0.629400
vt 0.853300 0.577400
vt 0.343900 0.639100
vt 0.990600 0.639100
vt 0.345000 0.356900
vt 0.988600 0.356900
vt 0.787800 0.085800
vt 0.852600 0.084700
vt 0.854200 0.180500
vt 0.789500 0.181600
vt 0.481100 0.629400
vt 0.345000 0.629400
vt 0.536300 0.629400
vt 0.536300 0.577400
vt 0.536300 0.495800
vt 0.582200 0.495800
vt 0.582200 0.577400
vt 0.582200 0.629400
vt 0.898700 0.203300
vt 0.964300 0.202600
vt 0.965400 0.298400
vt 0.899800 0.299200
vt 0.638100 0.629400
vt 0.638100 0.577400
vt 0.638100 0.495800
vt 0.690200 0.495800
vt 0.690200 0.577400
vt 0.690200 0.629400
vt 0.789400 0.206800
vt 0.854600 0.205900
vt 0.855900 0.301800
vt 0.790700 0.302600
vt 0.745700 0.629400
vt 0.745700 0.577400
vt 0.745700 0.495800
vt 0.798000 0.495800
vt 0.798000 0.577400
vt 0.798000 0.629400
vt 0.898800 0.085000
vt 0.963700 0.084900
vt 0.963800 0.180800
vt 0.898900 0.180800
vt 0.853300 0.495800
vt 0.988600 0.495800
vt 0.872600 0.084300
vt 0.874200 0.180200
vt 0.854600 0.200500
vt 0.789800 0.201700
vt 0.769500 0.182000
vt 0.767800 0.086100
vt 0.984300 0.202400
vt 0.985400 0.298200
vt 0.965600 0.318500
vt 0.900100 0.319200
vt 0.879800 0.299400
vt 0.878700 0.203600
vt 0.874600 0.205700
vt 0.875900 0.301500
vt 0.856200 0.321800
vt 0.791000 0.322700
vt 0.770700 0.302900
vt 0.769400 0.207100
vt 0.983700 0.084900
vt 0.983900 0.180700
vt 0.963800 0.200800
vt 0.898900 0.200900
vt 0.878900 0.180900
vt 0.878700 0.085000
vt 0.356000 0.105500
vt 0.430200 0.105000
vt 0.430900 0.220000
vt 0.356800 0.220500
vt 0.508100 0.104500
vt 0.508800 0.219500
vt 0.434600 0.220000
vt 0.433900 0.105000
vt 0.563100 0.314700
vt 0.562700 0.255000
vt 0.565700 0.255000
vt 0.566100 0.314700
vt 0.382700 0.237600
vt 0.456800 0.237400
vt 0.457100 0.352500
vt 0.382900 0.352600
vt 0.534700 0.237300
vt 0.534900 0.352300
vt 0.460800 0.352500
vt 0.460500 0.237400
vt 0.572000 0.314700
vt 0.571900 0.255000
vt 0.574900 0.255000
vt 0.575000 0.314700
vt 0.521100 0.099900
vt 0.595200 0.100700
vt 0.594000 0.215700
vt 0.519900 0.214900
vt 0.673100 0.101500
vt 0.671900 0.216500
vt 0.597700 0.215700
vt 0.598900 0.100700
vt 0.570600 0.255000
vt 0.570300 0.314700
vt 0.567300 0.314700
vt 0.567600 0.255000
vt 0.000500 0.998300
vt 0.000500 0.500100
vt 0.323100 0.500100
vt 0.323100 0.996600
vt 0.323100 0.498600
vt 0.000500 0.497000
vt 0.000500 0.000500
vt 0.323100 0.000500
vn 0.0000 -0.0000 1.0000
vn 1.0000 0.0000 0.0000
vn 0.0000 0.0000 -1.0000
vn -1.0000 0.0000 0.0000
vn 0.0000 -1.0000 -0.0000
vn 0.0000 1.0000 0.0000
usemtl lambert1.002
s 1
f 1/1/1 2/2/1 3/3/1 4/4/1
f 2/5/2 5/6/2 6/7/2 3/8/2
f 7/9/3 8/10/3 9/11/3 10/12/3
f 8/13/4 1/14/4 4/15/4 9/16/4
f 3/3/1 11/17/1 12/18/1 4/4/1
f 10/19/2 13/20/2 14/21/2 15/22/2
f 9/11/3 16/23/3 13/24/3 10/12/3
f 4/15/4 12/25/4 16/26/4 9/16/4
f 17/27/2 18/28/2 19/29/2 20/30/2
f 21/31/2 11/32/2 3/8/2 6/7/2
f 22/33/2 21/31/2 6/7/2 23/34/2
f 24/35/2 25/36/2 26/37/2 23/34/2
f 27/38/2 22/33/2 23/34/2 26/37/2
f 28/39/2 29/40/2 30/41/2 31/42/2
f 32/43/2 27/38/2 26/37/2 33/44/2
f 34/45/2 35/46/2 36/47/2 33/44/2
f 37/48/2 32/43/2 33/44/2 36/47/2
f 38/49/2 39/50/2 40/51/2 41/52/2
f 42/53/2 37/48/2 36/47/2 43/54/2
f 44/55/2 45/56/2 46/57/2 43/54/2
f 47/58/2 42/53/2 43/54/2 46/57/2
f 48/59/2 49/60/2 50/61/2 51/62/2
f 14/21/2 47/58/2 46/57/2 15/22/2
f 52/63/2 7/64/2 10/19/2 15/22/2
f 24/65/1 23/66/1 19/29/1 18/28/1
f 23/67/5 6/68/5 20/30/5 19/29/5
f 6/69/3 5/70/3 17/27/3 20/30/3
f 34/71/1 33/72/1 30/41/1 29/40/1
f 33/73/5 26/74/5 31/42/5 30/41/5
f 26/75/3 25/76/3 28/39/3 31/42/3
f 44/77/1 43/78/1 40/51/1 39/50/1
f 43/79/5 36/80/5 41/52/5 40/51/5
f 36/81/3 35/82/3 38/49/3 41/52/3
f 52/83/1 15/84/1 50/61/1 49/60/1
f 15/85/5 46/86/5 51/62/5 50/61/5
f 46/87/3 45/88/3 48/59/3 51/62/3
f 53/89/3 54/90/3 55/91/3 56/92/3
f 57/93/1 58/94/1 59/95/1 60/96/1
f 56/97/2 55/98/2 59/99/2 58/100/2
f 55/91/6 54/90/6 60/96/6 59/95/6
f 61/101/3 62/102/3 63/103/3 64/104/3
f 65/105/1 66/106/1 67/107/1 68/108/1
f 64/109/2 63/110/2 67/111/2 66/112/2
f 63/103/6 62/102/6 68/108/6 67/107/6
f 69/113/3 70/114/3 71/115/3 72/116/3
f 73/117/1 74/118/1 75/119/1 76/120/1
f 71/115/6 70/114/6 76/120/6 75/119/6
f 70/121/4 69/122/4 73/123/4 76/124/4
f 77/125/6 78/126/6 79/127/6 80/128/6
f 81/129/5 82/130/5 83/131/5 84/132/5
