# This file uses centimeters as units for non-parametric coordinates.

mtllib Mural_1.mtl
g default
v 173.698196 1.578000 208.503693
v 19.396900 1.578000 208.190094
v 19.396900 0.002200 208.190094
v 173.698196 0.002200 208.503693
v 173.722595 1.578000 169.093002
v 173.722595 0.002200 169.093002
v 19.947100 1.578000 169.187103
v 19.947100 0.002200 169.187103
v 172.000702 1.578000 170.302200
v 21.413700 1.578000 170.791000
v 21.413700 0.002200 170.791000
v 172.000702 0.002200 170.302200
v 171.948898 1.578000 206.522705
v 171.948898 0.002200 206.522705
v 20.909100 1.578000 206.253906
v 20.909201 0.002200 206.253906
v 20.927900 0.292300 206.261993
v 171.967697 0.292300 206.530899
v 171.967697 0.507800 206.530899
v 20.927900 0.507800 206.261993
v 172.019501 0.292300 170.310303
v 172.019501 0.507800 170.310303
v 21.432501 0.292300 170.799103
v 21.432501 0.507800 170.799103
vt 0.081100 0.924366
vt 0.294153 0.924366
vt 0.294153 0.936345
vt 0.081100 0.936345
vt 0.601841 0.922132
vt 0.749015 0.922132
vt 0.749015 0.934111
vt 0.601841 0.934111
vt 0.348856 0.934143
vt 0.136496 0.934143
vt 0.136496 0.922167
vt 0.348856 0.922167
vt 0.602464 0.916129
vt 0.747992 0.916129
vt 0.747992 0.928114
vt 0.602464 0.928114
vt 0.247985 0.921958
vt 0.455864 0.921958
vt 0.455864 0.933940
vt 0.247985 0.933940
vt 0.813603 0.902009
vt 0.948761 0.902009
vt 0.948761 0.913986
vt 0.813603 0.913986
vt 0.400998 0.931936
vt 0.192420 0.931936
vt 0.192420 0.919959
vt 0.400998 0.919959
vt 0.814607 0.890012
vt 0.947157 0.890012
vt 0.947157 0.901984
vt 0.814607 0.901984
vt 0.615402 0.899012
vt 0.013881 0.889946
vt 0.622201 0.889039
vt 0.618121 0.959298
vt 0.624921 0.974710
vt 0.014334 0.971990
vt 0.019774 0.902639
vt 0.020227 0.957485
vt 0.024140 0.969340
vt 0.617434 0.972949
vt 0.018726 0.981973
vt 0.024140 0.886431
vt 0.018275 0.871994
vt 0.619239 0.884626
vt 0.626006 0.869287
vt 0.624201 0.982875
vt 0.305878 0.925552
vt 0.505850 0.928116
vt 0.505850 0.929825
vt 0.305878 0.927261
vt 0.709658 0.896399
vt 0.577172 0.896399
vt 0.577172 0.894723
vt 0.709658 0.894723
vt 0.560655 0.930766
vt 0.359756 0.933309
vt 0.359756 0.931614
vt 0.560655 0.929070
vt 0.425615 0.934452
vt 0.473464 0.934452
vt 0.473464 0.936127
vt 0.425615 0.936127
vt 0.332569 0.878077
vt 0.553010 0.881419
vt 0.551840 0.984704
vt 0.332235 0.983701
vt 0.323522 0.983945
vt 0.323522 0.878087
vt 0.543088 0.880424
vt 0.543756 0.983611
vn -0.002000 0.000000 0.999998
vn -0.002000 0.000000 0.999998
vn -0.002000 0.000000 0.999998
vn -0.002000 0.000000 0.999998
vn -0.002000 0.000000 0.999998
vn -0.002000 0.000000 0.999998
vn 1.000000 0.000000 0.000600
vn 1.000000 0.000000 0.000600
vn 1.000000 0.000000 0.000600
vn 1.000000 0.000000 0.000600
vn 1.000000 0.000000 0.000600
vn 1.000000 0.000000 0.000600
vn -0.000600 0.000000 -1.000000
vn -0.000600 0.000000 -1.000000
vn -0.000600 0.000000 -1.000000
vn -0.000600 0.000000 -1.000000
vn -0.000600 0.000000 -1.000000
vn -0.000600 0.000000 -1.000000
vn -0.999901 0.000000 -0.014100
vn -0.999901 0.000000 -0.014100
vn -0.999901 0.000000 -0.014100
vn -0.999901 0.000000 -0.014100
vn -0.999901 0.000000 -0.014100
vn -0.999901 0.000000 -0.014100
vn 0.003200 0.000000 0.999995
vn 0.003200 0.000000 0.999995
vn 0.003200 0.000000 0.999995
vn 0.003200 0.000000 0.999995
vn 0.003200 0.000000 0.999995
vn 0.003200 0.000000 0.999995
vn -0.999999 0.000000 -0.001400
vn -0.999999 0.000000 -0.001400
vn -0.999999 0.000000 -0.001400
vn -0.999999 0.000000 -0.001400
vn -0.999999 0.000000 -0.001400
vn -0.999999 0.000000 -0.001400
vn 0.001800 0.000000 -0.999998
vn 0.001800 0.000000 -0.999998
vn 0.001800 0.000000 -0.999998
vn 0.001800 0.000000 -0.999998
vn 0.001800 0.000000 -0.999998
vn 0.001800 0.000000 -0.999998
vn 0.999899 0.000000 0.014200
vn 0.999899 0.000000 0.014200
vn 0.999899 0.000000 0.014200
vn 0.999899 0.000000 0.014200
vn 0.999899 0.000000 0.014200
vn 0.999899 0.000000 0.014200
vn 0.000000 -1.000000 0.000000
vn 0.000000 -1.000000 0.000000
vn 0.000000 -1.000000 0.000000
vn 0.000000 -1.000000 0.000000
vn 0.000000 -1.000000 0.000000
vn 0.000000 -1.000000 0.000000
vn 0.000000 -1.000000 0.000000
vn 0.000000 -1.000000 0.000000
vn 0.000000 -1.000000 0.000000
vn 0.000000 -1.000000 0.000000
vn 0.000000 -1.000000 0.000000
vn 0.000000 -1.000000 0.000000
vn 0.000000 -1.000000 0.000000
vn 0.000000 -1.000000 0.000000
vn 0.000000 -1.000000 0.000000
vn 0.000000 -1.000000 0.000000
vn 0.000000 -1.000000 0.000000
vn 0.000000 -1.000000 0.000000
vn 0.000000 -1.000000 0.000000
vn 0.000000 -1.000000 0.000000
vn 0.000000 -1.000000 0.000000
vn 0.000000 -1.000000 0.000000
vn 0.000000 -1.000000 0.000000
vn 0.000000 -1.000000 0.000000
vn 0.000000 1.000000 0.000000
vn 0.000000 1.000000 0.000000
vn 0.000000 1.000000 0.000000
vn 0.000000 1.000000 0.000000
vn 0.000000 1.000000 0.000000
vn 0.000000 1.000000 0.000000
vn 0.000000 1.000000 0.000000
vn 0.000000 1.000000 0.000000
vn 0.000000 1.000000 0.000000
vn 0.000000 1.000000 0.000000
vn 0.000000 1.000000 0.000000
vn 0.000000 1.000000 0.000000
vn 0.000000 1.000000 0.000000
vn 0.000000 1.000000 0.000000
vn 0.000000 1.000000 0.000000
vn 0.000000 1.000000 0.000000
vn 0.000000 1.000000 0.000000
vn 0.000000 1.000000 0.000000
vn 0.000000 1.000000 0.000000
vn 0.000000 1.000000 0.000000
vn 0.000000 1.000000 0.000000
vn 0.000000 1.000000 0.000000
vn 0.000000 1.000000 0.000000
vn 0.000000 1.000000 0.000000
vn -0.001800 0.000000 0.999998
vn -0.001800 0.000000 0.999998
vn -0.001800 0.000000 0.999998
vn -0.001800 0.000000 0.999998
vn 0.999999 0.000000 0.001400
vn 0.999999 0.000000 0.001400
vn 0.999999 0.000000 0.001400
vn 0.999999 0.000000 0.001400
vn -0.003200 0.000000 -0.999995
vn -0.003200 0.000000 -0.999995
vn -0.003200 0.000000 -0.999995
vn -0.003200 0.000000 -0.999995
vn -0.999899 0.000000 -0.014200
vn -0.999899 0.000000 -0.014200
vn -0.999899 0.000000 -0.014200
vn -0.999899 0.000000 -0.014200
vn 0.000000 -1.000000 0.000000
vn 0.000000 -1.000000 0.000000
vn 0.000000 -1.000000 0.000000
vn 0.000000 -1.000000 0.000000
vn 0.000000 1.000000 0.000000
vn 0.000000 1.000000 0.000000
vn 0.000000 1.000000 0.000000
vn 0.000000 1.000000 0.000000
s off
g Mural_1:Mural_Mesh_001
usemtl initialShadingGroup
f 1/1/1 2/2/2 3/3/3
f 3/3/4 4/4/5 1/1/6
f 5/5/7 1/6/8 4/7/9
f 4/7/10 6/8/11 5/5/12
f 7/9/13 5/10/14 6/11/15
f 6/11/16 8/12/17 7/9/18
f 2/13/19 7/14/20 8/15/21
f 8/15/22 3/16/23 2/13/24
f 9/17/25 10/18/26 11/19/27
f 11/19/28 12/20/29 9/17/30
f 13/21/31 9/22/32 12/23/33
f 12/23/34 14/24/35 13/21/36
f 15/25/37 13/26/38 14/27/39
f 14/27/40 16/28/41 15/25/42
f 10/29/43 15/30/44 16/31/45
f 16/31/46 11/32/47 10/29/48
f 12/33/49 8/34/50 6/35/51
f 14/36/52 12/33/53 6/35/54
f 14/36/55 6/35/56 4/37/57
f 14/36/58 4/37/59 3/38/60
f 8/34/61 12/33/62 11/39/63
f 8/34/64 11/39/65 16/40/66
f 3/38/67 8/34/68 16/40/69
f 14/36/70 3/38/71 16/40/72
f 10/41/73 9/42/74 7/43/75
f 15/44/76 10/41/77 7/43/78
f 15/44/79 7/43/80 2/45/81
f 13/46/82 15/44/83 2/45/84
f 13/46/85 2/45/86 1/47/87
f 13/46/88 1/47/89 5/48/90
f 5/48/91 7/43/92 9/42/93
f 13/46/94 5/48/95 9/42/96
f 17/49/97 18/50/98 19/51/99 20/52/100
f 18/53/101 21/54/102 22/55/103 19/56/104
f 21/57/105 23/58/106 24/59/107 22/60/108
f 23/61/109 17/62/110 20/63/111 24/64/112
f 18/65/113 17/66/114 23/67/115 21/68/116
f 19/69/117 22/70/118 24/71/119 20/72/120
g default
v 19.979099 3.517600 173.488297
v 96.621399 3.517600 173.488297
v 96.621399 19.337400 173.488297
v 19.979099 19.337400 173.488297
v 173.263596 3.517600 173.488297
v 173.263596 19.337400 173.488297
v 19.979099 3.517600 172.099304
v 96.621399 3.517600 172.099304
v 173.263596 3.517600 172.099304
v 173.263596 19.337400 172.099304
v 96.621399 19.337400 172.099304
v 19.979099 19.337400 172.099304
vt 0.020000 0.456965
vt 0.979800 0.456965
vt 0.979800 0.853166
vt 0.020000 0.853166
vt 0.020000 0.031765
vt 0.979800 0.031765
vt 0.979800 0.427965
vt 0.020000 0.427965
vt 0.306418 0.940095
vt 0.017720 0.944306
vt 0.017660 0.933838
vt 0.306358 0.929627
vt 0.804088 0.899831
vt 0.744497 0.899831
vt 0.744497 0.889363
vt 0.804088 0.889363
vt 0.016003 0.930388
vt 0.304713 0.929906
vt 0.304713 0.940374
vt 0.016003 0.940856
vt 0.744496 0.952963
vt 0.804088 0.952963
vt 0.804088 0.963431
vt 0.744496 0.963431
vt 0.305574 0.939416
vt 0.016853 0.941762
vt 0.016823 0.931294
vt 0.305544 0.928948
vt 0.016843 0.928233
vt 0.305554 0.928172
vt 0.305554 0.938640
vt 0.016843 0.938700
vn 0.000000 0.000000 1.000000
vn 0.000000 0.000000 1.000000
vn 0.000000 0.000000 1.000000
vn 0.000000 0.000000 1.000000
vn 0.000000 0.000000 1.000000
vn 0.000000 0.000000 1.000000
vn 0.000000 0.000000 1.000000
vn 0.000000 0.000000 1.000000
vn 0.000000 -1.000000 0.000000
vn 0.000000 -1.000000 0.000000
vn 0.000000 -1.000000 0.000000
vn 0.000000 -1.000000 0.000000
vn 1.000000 0.000000 0.000000
vn 1.000000 0.000000 0.000000
vn 1.000000 0.000000 0.000000
vn 1.000000 0.000000 0.000000
vn 0.000000 1.000000 0.000000
vn 0.000000 1.000000 0.000000
vn 0.000000 1.000000 0.000000
vn 0.000000 1.000000 0.000000
vn -1.000000 0.000000 0.000000
vn -1.000000 0.000000 0.000000
vn -1.000000 0.000000 0.000000
vn -1.000000 0.000000 0.000000
vn 0.000000 -1.000000 0.000000
vn 0.000000 -1.000000 0.000000
vn 0.000000 -1.000000 0.000000
vn 0.000000 -1.000000 0.000000
vn 0.000000 1.000000 0.000000
vn 0.000000 1.000000 0.000000
vn 0.000000 1.000000 0.000000
vn 0.000000 1.000000 0.000000
s off
g Mural_1:Box001
usemtl initialShadingGroup
f 25/73/121 26/74/122 27/75/123 28/76/124
f 26/77/125 29/78/126 30/79/127 27/80/128
f 26/81/129 25/82/130 31/83/131 32/84/132
f 30/85/133 29/86/134 33/87/135 34/88/136
f 27/89/137 30/90/138 34/91/139 35/92/140
f 25/93/141 28/94/142 36/95/143 31/96/144
f 29/97/145 26/98/146 32/99/147 33/100/148
f 28/101/149 27/102/150 35/103/151 36/104/152
