<svg xmlns="http://www.w3.org/2000/svg" viewBox="0 0 279.87 447.54"><defs><style>.cls-1{fill:#f9f6ed;}</style></defs><g id="Layer_2" data-name="Layer 2"><g id="Layer_1-2" data-name="Layer 1"><g id="Component_6_7" data-name="Component 6 7"><path id="Path_1" data-name="Path 1" class="cls-1" d="M235.48,164.65h28.07V263.4H235.48Z"/><g id="Group_1" data-name="Group 1"><path id="Path_2" data-name="Path 2" class="cls-1" d="M178.87,383.51H207l-43.6-101.57h-2L120.88,380.1C110.13,408,99.64,434.45,93.53,447.54h9.74c7.55-25.41,15.78-50.48,23.35-71.14,1.95-5.32,4-10.79,6.06-16.3H169Zm-45.42-25.43c5.77-15.33,11.66-30.61,16.08-42.11h.88l17.74,42.11Z"/></g><path id="Path_3" data-name="Path 3" class="cls-1" d="M249.76,383.52l-78.13-168.4h-8.29V263.4H135.27V164.65h42c28.8,0,37.23,8.72,37.23,25,0,15.86-15.12,23.86-40.72,25.3l1,2.2h29l76.08,166.37ZM170.91,213.09c10.75,0,16.28-8.29,16.28-23.42,0-14.1-4.64-23.28-16-23h-7.85v46.39Z"/><path id="Path_4" data-name="Path 4" class="cls-1" d="M199.56,133.12v8.58H135.27V42.94h60.06v8.58A62.68,62.68,0,0,0,164.5,45h-1.16V91.24a101,101,0,0,0,24.87-3.36V96.6a95.85,95.85,0,0,0-24.87-3.34v46.4h4.94C183,139.66,189.53,137.92,199.56,133.12Z"/><g id="Group_2" data-name="Group 2"><path id="Path_5" data-name="Path 5" class="cls-1" d="M155.49,32.32h-2.62L173.31,0h13.81V1.11Z"/></g><path id="Path_6" data-name="Path 6" class="cls-1" d="M3.34,221.67V40h2l54.79,77.38h.73L110.44,40h1.87V263.4H84.25L84.11,86.87h-.87l-35,54.83H46.35L6.54,84.53H5.66V221.66a308.32,308.32,0,0,0,3.2,41.73H0A290,290,0,0,0,3.34,221.67Z"/><path id="Path_7" data-name="Path 7" class="cls-1" d="M0,284.77H55.08c37.09,0,59.53,17.6,59.53,49.44s-22.43,49.32-59.53,49.32H0Zm48.48,96.72c24.58,0,36.18-18.24,36.18-47.28S73.06,286.8,48.48,286.8H28.07v94.69Z"/></g></g></g></svg>