# This file uses centimeters as units for non-parametric coordinates.

mtllib CreditoHipotecario_Estruct.mtl
g default
v -9.124254 0.152576 7.051619
v 8.379908 0.152576 7.051620
v -9.124254 2.977234 7.051620
v 8.379908 2.977234 7.051620
v -7.354051 2.977237 -7.003894
v 8.379908 2.977238 -7.006354
v -7.355739 0.152580 -7.008814
v 8.379908 0.152580 -7.008814
v -3.318340 2.977238 -7.008813
v -3.318340 0.152580 -7.008814
v -2.420027 2.977238 -7.008813
v -2.420027 0.152580 -7.008814
v 6.728723 0.152580 -7.008814
v 8.227413 0.152580 -7.008814
v 8.227413 2.366259 -7.008813
v -3.318340 2.366259 -7.008813
v -2.420027 2.366259 -7.008813
v 6.728723 2.366259 -7.008813
v 8.379908 2.366258 -2.830976
v 8.379908 0.152578 -2.830976
v 8.379908 2.977237 -1.737339
v 8.379908 2.366257 -1.737339
v 8.379908 0.152578 -1.737339
v 8.379908 2.366257 -1.498550
v 8.379908 0.152578 -1.498550
v 8.379908 2.366257 -0.504778
v 8.379908 0.152578 -0.504778
v -7.354895 2.977237 -2.871078
v -7.355739 0.152578 -2.870804
v -9.124254 2.977237 -2.871077
v -9.124254 0.152578 -2.870803
v -3.318340 2.366259 -7.218192
v -2.420027 2.366259 -7.218192
v -3.318340 0.152580 -7.218192
v -2.420027 0.152580 -7.218192
v 6.728723 2.366259 -7.218192
v 8.227413 2.366259 -7.218192
v 6.728722 0.152580 -7.218192
v 8.227413 0.152580 -7.218192
v 8.589285 2.366257 -1.737339
v 8.589285 0.152578 -1.737339
v 8.589286 2.366257 -2.830976
v 8.589285 0.152578 -2.830976
v 8.589285 2.366257 -0.504778
v 8.589285 0.152578 -0.504778
v 8.589285 2.366257 -1.498550
v 8.589285 0.152578 -1.498550
v -7.355738 0.211168 -7.008813
v 6.694719 2.977238 -7.006738
vt 0.639107 0.188152
vt 0.984211 1.003829
vt 0.577784 0.208377
vt 0.602422 0.208377
vt 0.830875 0.726483
vt 0.882893 0.993059
vt 0.884949 0.825867
vt 0.577784 0.009435
vt 0.602422 0.172169
vt 0.577784 0.172169
vt 0.602422 0.637539
vt 0.577784 0.643686
vt 0.602422 0.577132
vt 0.677737 0.975376
vt 0.283313 0.722187
vt 0.689329 0.009435
vt 0.606827 0.174456
vt 0.554117 0.725581
vt 0.639587 0.284459
vt 0.636379 0.260030
vt 0.569191 0.938333
vt 0.683877 0.281801
vt 0.690733 0.256252
vt 0.474642 0.821907
vt 0.385734 0.887830
vt 0.389393 0.815931
vt 0.900399 0.415019
vt 0.906453 0.816110
vt 0.220099 0.932213
vt 0.220099 0.895988
vt 0.228542 0.895988
vt 0.228542 0.932213
vt 0.441135 0.857468
vt 0.443873 0.858290
vt 0.475296 0.943709
vt 0.466855 0.943709
vt 0.219965 0.995318
vt 0.219965 0.934881
vt 0.228408 0.934881
vt 0.228408 0.995318
vt 0.489786 0.952267
vt 0.501672 0.952794
vt 0.380717 0.724364
vt 0.389158 0.724364
vt 0.507962 0.826404
vt 0.497114 0.826906
vt 0.232409 0.996202
vt 0.232815 0.952102
vt 0.242906 0.951896
vt 0.242906 0.995998
vt 0.465564 0.734726
vt 0.433388 0.727589
vt 0.486216 0.822713
vt 0.273484 0.858146
vt 0.232896 0.947293
vt 0.232896 0.907218
vt 0.241339 0.907218
vt 0.241339 0.947293
vt 0.444079 0.728217
vt 0.455371 0.734219
vt 0.919936 0.487817
vt 0.917574 0.487817
vt 0.917574 0.325083
vt 0.632276 0.619289
vt 0.630001 0.611164
vt 0.625363 0.610530
vt 0.623001 0.618971
vt 0.915211 0.594823
vt 0.521428 0.061821
vt 0.634639 0.601764
vt 0.634639 0.610202
vt 0.627639 0.610205
vt 0.625276 0.602401
vt 0.639364 0.601764
vt 0.639364 0.607911
vt 0.951066 0.008753
vt 0.977237 0.001719
vt 0.630001 0.601764
vt 0.630001 0.610203
vt 0.637002 0.610194
vt 0.637002 0.601763
vt 0.620706 0.611676
vt 0.623001 0.602327
vt 0.630001 0.610203
vt 0.630001 0.618642
vt 0.637002 0.618633
vt 0.637002 0.610202
vt 0.980122 0.306324
vt 0.912849 0.629722
vt 0.992069 0.005494
vt 0.992069 0.710323
vt 0.912849 0.724969
vt 0.983617 0.704707
vt 0.548412 0.067500
vt 0.523472 0.073522
vt 0.654356 0.462707
vt 0.962073 0.170647
vt 0.409567 0.985197
vt 0.373359 0.985197
vt 0.155156 0.906477
vt 0.215556 0.905553
vt 0.145358 0.996509
vt 0.146463 0.816244
vt 0.102302 0.908471
vt 0.100742 0.903060
vt 0.409274 0.074630
vt 0.445476 0.074027
vt 0.977237 0.170133
vt 0.977237 0.230540
vt 0.253191 0.853329
vt 0.257910 0.853456
vt 0.262635 0.893393
vt 0.257910 0.893393
vt 0.095641 0.993353
vt 0.577784 0.575762
vn 0.000000 0.000000 -1.000000
vn 0.000000 0.000000 -1.000000
vn 0.000000 0.000000 -1.000000
vn 0.000000 0.000000 -1.000000
vn 0.000000 0.000000 -1.000000
vn 0.000000 0.000000 -1.000000
vn -1.000000 0.000000 0.000000
vn -1.000000 0.000000 0.000000
vn -1.000000 0.000000 0.000000
vn 0.000950 -0.001779 0.999998
vn 0.000950 -0.001779 0.999998
vn 0.000950 -0.001779 0.999998
vn 0.001219 0.000000 0.999999
vn 0.001219 0.000000 0.999999
vn 0.001219 0.000000 0.999999
vn 0.000000 0.000000 1.000000
vn 0.000000 0.000000 1.000000
vn 0.000000 0.000000 1.000000
vn 0.000000 0.000000 1.000000
vn 0.000000 0.000000 1.000000
vn 0.000000 0.000000 1.000000
vn 0.000000 -0.000000 1.000000
vn 0.000000 -0.000000 1.000000
vn 0.000000 -0.000000 1.000000
vn 0.000000 -0.000000 1.000000
vn 0.000000 -0.000000 1.000000
vn 0.000000 -0.000000 1.000000
vn 1.000000 0.000000 -0.000000
vn 1.000000 0.000000 -0.000000
vn 1.000000 0.000000 -0.000000
vn 1.000000 -0.000299 -0.000004
vn 1.000000 -0.000299 -0.000004
vn 1.000000 -0.000299 -0.000004
vn 1.000000 -0.000610 0.000204
vn 1.000000 -0.000610 0.000204
vn 1.000000 -0.000610 0.000204
vn 0.000000 -0.000016 1.000000
vn 0.000000 -0.000016 1.000000
vn 0.000000 -0.000016 1.000000
vn 0.000000 -0.000000 1.000000
vn 0.000000 -0.000000 1.000000
vn 0.000000 -0.000000 1.000000
vn -1.000000 0.000000 0.000000
vn -1.000000 0.000000 0.000000
vn -1.000000 0.000000 0.000000
vn 0.000000 0.000097 1.000000
vn 0.000000 0.000097 1.000000
vn 0.000000 0.000097 1.000000
vn 0.000001 0.000097 1.000000
vn 0.000001 0.000097 1.000000
vn 0.000001 0.000097 1.000000
vn 0.000000 -1.000000 0.000000
vn 0.000000 -1.000000 0.000000
vn 0.000000 -1.000000 0.000000
vn 0.000000 -1.000000 0.000000
vn 0.000000 -1.000000 0.000000
vn 0.000000 -1.000000 0.000000
vn 1.000000 0.000000 0.000000
vn 1.000000 0.000000 0.000000
vn 1.000000 0.000000 0.000000
vn 1.000000 0.000000 0.000000
vn 1.000000 0.000000 0.000000
vn 1.000000 0.000000 0.000000
vn -1.000000 0.000000 0.000000
vn -1.000000 0.000000 0.000000
vn -1.000000 0.000000 0.000000
vn -1.000000 0.000000 0.000000
vn -1.000000 0.000000 0.000000
vn -1.000000 0.000000 0.000000
vn 0.000000 -1.000000 0.000000
vn 0.000000 -1.000000 0.000000
vn 0.000000 -1.000000 0.000000
vn 0.000000 -1.000000 0.000000
vn 0.000000 -1.000000 0.000000
vn 0.000000 -1.000000 0.000000
vn 1.000000 -0.000001 0.000000
vn 1.000000 -0.000001 0.000000
vn 1.000000 -0.000001 0.000000
vn 1.000000 0.000000 -0.000005
vn 1.000000 0.000000 -0.000005
vn 1.000000 0.000000 -0.000005
vn -1.000000 0.000000 0.000000
vn -1.000000 0.000000 0.000000
vn -1.000000 0.000000 0.000000
vn -1.000000 0.000000 0.000000
vn -1.000000 0.000000 0.000000
vn -1.000000 0.000000 0.000000
vn 0.000000 0.000000 -1.000000
vn 0.000000 0.000000 -1.000000
vn 0.000000 0.000000 -1.000000
vn 0.000000 0.000000 -1.000000
vn 0.000000 0.000000 -1.000000
vn 0.000000 0.000000 -1.000000
vn 0.000000 -1.000000 -0.000001
vn 0.000000 -1.000000 -0.000001
vn 0.000000 -1.000000 -0.000001
vn -0.000005 -1.000000 0.000000
vn -0.000005 -1.000000 0.000000
vn -0.000005 -1.000000 0.000000
vn 0.000000 0.000000 1.000000
vn 0.000000 0.000000 1.000000
vn 0.000000 0.000000 1.000000
vn 0.000000 0.000000 1.000000
vn 0.000000 0.000000 1.000000
vn 0.000000 0.000000 1.000000
vn 0.000000 0.000000 -1.000000
vn 0.000000 0.000000 -1.000000
vn 0.000000 0.000000 -1.000000
vn 0.000000 0.000000 -1.000000
vn 0.000000 0.000000 -1.000000
vn 0.000000 0.000000 -1.000000
vn 0.000000 -1.000000 0.000000
vn 0.000000 -1.000000 0.000000
vn 0.000000 -1.000000 0.000000
vn 0.000000 -1.000000 0.000000
vn 0.000000 -1.000000 0.000000
vn 0.000000 -1.000000 0.000000
vn 0.000000 0.000000 1.000000
vn 0.000000 0.000000 1.000000
vn 0.000000 0.000000 1.000000
vn 0.000000 0.000000 1.000000
vn 0.000000 0.000000 1.000000
vn 0.000000 0.000000 1.000000
vn 1.000000 -0.000001 0.000000
vn 1.000000 -0.000001 0.000000
vn 1.000000 -0.000001 0.000000
vn 1.000000 -0.000000 0.000000
vn 1.000000 -0.000000 0.000000
vn 1.000000 -0.000000 0.000000
vn 0.000000 0.000000 1.000000
vn 0.000000 0.000000 1.000000
vn 0.000000 0.000000 1.000000
vn 0.000000 0.000000 1.000000
vn 0.000000 0.000000 1.000000
vn 0.000000 0.000000 1.000000
vn 0.000000 0.000000 1.000000
vn 0.000000 0.000000 1.000000
vn 0.000000 0.000000 1.000000
vn 0.000000 0.000000 1.000000
vn 0.000000 0.000000 1.000000
vn 0.000000 0.000000 1.000000
vn -1.000000 0.000000 0.000000
vn -1.000000 0.000000 0.000000
vn -1.000000 0.000000 0.000000
vn -1.000000 0.000000 -0.000001
vn -1.000000 0.000000 -0.000001
vn -1.000000 0.000000 -0.000001
vn -1.000000 0.000000 0.000000
vn -1.000000 0.000000 0.000000
vn -1.000000 0.000000 0.000000
vn -1.000000 0.000000 0.000000
vn -1.000000 0.000000 0.000000
vn -1.000000 0.000000 0.000000
vn -0.012637 -0.000871 0.999920
vn -0.012637 -0.000871 0.999920
vn -0.012637 -0.000871 0.999920
vn 0.000000 -0.000000 1.000000
vn 0.000000 -0.000000 1.000000
vn 0.000000 -0.000000 1.000000
vn -0.000227 -0.003968 0.999992
vn -0.000227 -0.003968 0.999992
vn -0.000227 -0.003968 0.999992
vn 0.000000 -0.003396 0.999994
vn 0.000000 -0.003396 0.999994
vn 0.000000 -0.003396 0.999994
vn 0.000000 -0.003396 0.999994
vn 0.000000 -0.003396 0.999994
vn 0.000000 -0.003396 0.999994
vn -0.000228 0.000000 1.000000
vn -0.000228 0.000000 1.000000
vn -0.000228 0.000000 1.000000
vn -1.000000 0.000000 0.000000
vn -1.000000 0.000000 0.000000
vn -1.000000 0.000000 0.000000
vn -1.000000 0.000000 0.000000
vn -1.000000 0.000000 0.000000
vn -1.000000 0.000000 0.000000
vn -1.000000 -0.000002 0.000000
vn -1.000000 -0.000002 0.000000
vn -1.000000 -0.000002 0.000000
vn -1.000000 0.000000 0.000000
vn -1.000000 0.000000 0.000000
vn -1.000000 0.000000 0.000000
vn -1.000000 0.000000 0.000000
vn -1.000000 0.000000 0.000000
vn -1.000000 0.000000 0.000000
vn -1.000000 0.000000 0.000000
vn -1.000000 0.000000 0.000000
vn -1.000000 0.000000 0.000000
vn -1.000000 0.000000 0.000000
vn -1.000000 0.000000 0.000000
vn -1.000000 0.000000 0.000000
vn -1.000000 0.000000 0.000000
vn -1.000000 0.000000 0.000000
vn -1.000000 0.000000 0.000000
vn -1.000000 0.000000 0.000000
vn -1.000000 0.000000 0.000000
vn -1.000000 0.000000 0.000000
s off
g CreditoHipotecario_Estruct:Mesh
usemtl initialShadingGroup
f 3/1/1 4/2/2 1/90/3
f 1/90/4 4/2/5 2/91/6
f 22/24/7 24/22/8 21/23/9
f 16/9/10 5/8/11 48/16/12
f 5/8/13 16/9/14 9/10/15
f 9/10/16 16/9/17 11/3/18
f 11/3/19 16/9/20 17/4/21
f 18/13/22 17/114/23 13/69/24
f 13/69/25 17/114/26 12/68/27
f 7/96/28 48/15/29 29/97/30
f 29/97/31 48/15/32 28/7/33
f 48/15/34 5/6/35 28/7/36
f 7/62/37 10/63/38 48/61/39
f 16/17/40 48/61/41 10/63/42
f 19/21/43 6/18/44 20/76/45
f 29/94/46 28/25/47 31/95/48
f 31/95/49 28/25/50 30/26/51
f 17/29/52 16/30/53 33/32/54
f 33/32/55 16/30/56 32/31/57
f 16/33/58 10/64/59 32/34/60
f 32/34/61 10/64/62 34/65/63
f 12/66/64 17/35/65 35/67/66
f 35/67/67 17/35/68 33/36/69
f 15/37/70 18/38/71 37/40/72
f 37/40/73 18/38/74 36/39/75
f 36/42/76 18/41/77 38/71/78
f 38/71/79 18/41/80 13/70/81
f 14/72/82 15/43/83 39/73/84
f 39/73/85 15/43/86 37/44/87
f 23/80/88 22/45/89 41/81/90
f 41/81/91 22/45/92 40/46/93
f 22/47/94 19/48/95 40/50/96
f 40/50/97 19/48/98 42/49/99
f 42/52/100 19/51/101 43/79/102
f 43/79/103 19/51/104 20/78/105
f 27/86/106 26/53/107 45/87/108
f 45/87/109 26/53/110 44/54/111
f 26/55/112 24/56/113 44/58/114
f 44/58/115 24/56/116 46/57/117
f 46/60/118 24/59/119 47/85/120
f 47/85/121 24/59/122 25/84/123
f 31/92/124 30/27/125 1/93/126
f 1/93/127 30/27/128 3/28/129
f 33/98/130 32/99/131 35/107/132
f 35/107/133 32/99/134 34/106/135
f 39/109/136 37/100/137 38/108/138
f 38/108/139 37/100/140 36/101/141
f 41/110/142 40/102/143 43/111/144
f 43/111/145 40/102/146 42/103/147
f 45/112/148 44/104/149 47/113/150
f 47/113/151 44/104/152 46/105/153
f 6/12/154 15/11/155 8/75/156
f 8/75/157 15/11/158 14/74/159
f 6/12/160 49/115/161 15/11/162
f 15/11/163 49/115/164 18/13/165
f 18/13/166 49/115/167 17/114/168
f 17/114/169 49/115/170 11/3/171
f 25/82/172 24/22/173 23/83/174
f 23/83/175 24/22/176 22/24/177
f 24/22/178 26/14/179 21/23/180
f 21/23/181 26/14/182 4/5/183
f 4/5/184 27/89/185 2/88/186
f 4/5/187 26/14/188 27/89/189
f 22/19/190 21/20/191 19/21/192
f 19/21/193 21/20/194 6/18/195
f 20/76/196 6/18/197 8/77/198
